<svg height="512pt" viewBox="0 0 512 512.00105" width="512pt" xmlns="http://www.w3.org/2000/svg"><path d="m134.988281 120.988281h-30c-41.347656 0-74.988281 33.640625-74.988281 74.988281v4.585938l149.980469.015625v-34.597656c0-24.808594-20.183594-44.992188-44.992188-44.992188zm0 0" fill="#3e5959"/><path d="m406.957031 120.988281h-29.996093c-24.8125 0-44.996094 20.183594-44.996094 44.992188v34.597656l149.984375-.015625v-4.585938c0-41.347656-33.644531-74.988281-74.992188-74.988281zm0 0" fill="#293939"/><path d="m150.984375 44.996094c0 8.398437 6.597656 14.996094 15 14.996094h59.992187c11.097657 0 20.996094 3.902343 28.796876 10.800781 9.898437 8.097656 16.199218 20.398437 16.199218 34.195312v120.988281h-29.996094v-120.988281c0-8.398437-6.601562-15-15-15h-59.992187c-24.898437 0-44.996094-20.097656-44.996094-44.992187 0-24.898438 20.097657-44.996094 44.996094-44.996094h345.960937v29.996094h-345.960937c-8.402344 0-15 6.597656-15 15zm0 0" fill="#384949"/><path d="m254.773438 70.792969c9.898437 8.097656 16.195312 20.398437 16.195312 34.195312v120.988281h-16.195312zm0 0" fill="#293939"/><path d="m445.652344 180.980469h-75.59375c-19.496094 0-36.59375 6.597656-47.992188 18.898437-6.898437 6.898438-17.5 11.097656-27.398437 11.097656h-75.589844c-11.101563 0-21.699219-3.601562-27.398437-9.597656-12.597657-12.898437-29.996094-20.398437-47.996094-20.398437h-77.390625c-36.597657 0-66.292969 29.695312-66.292969 66.289062v195.582031c0 35.996094 28.199219 67.59375 62.992188 69.09375 30.296874 1.199219 59.09375-16.601562 72.894531-43.894531l28.496093-56.996093c2.097657-4.199219 4.800782-8.101563 8.398438-11.097657l52.195312-9h29.796876l29.796874-.300781 54.59375 9.300781c3.597657 2.996094 6.300782 6.898438 8.398438 11.097657l28.496094 56.996093c13.199218 26.394531 40.496094 43.894531 69.59375 43.894531 37.796875 0 66.292968-33.097656 66.292968-69.09375v-195.582031c0-36.59375-29.699218-66.289062-66.292968-66.289062zm0 0" fill="#537983"/><g fill="#3e5959"><path d="m511.945312 247.269531v195.582031c0 35.996094-28.496093 69.09375-66.292968 69.09375-29.097656 0-56.394532-17.5-69.59375-43.894531l-28.496094-56.996093c-2.097656-4.199219-4.800781-8.101563-8.398438-11.097657l-54.59375-9.300781-29.796874.300781v-179.980469h39.894531c9.898437 0 20.5-4.199218 27.398437-11.097656 11.398438-12.300781 28.496094-18.898437 47.992188-18.898437h75.59375c36.59375 0 66.292968 29.695312 66.292968 66.289062zm0 0"/><path d="m89.992188 240.972656h29.996093v89.992188h-29.996093zm0 0"/><path d="m59.996094 270.96875h89.988281v29.996094h-89.988281zm0 0"/></g><path d="m361.960938 270.96875h29.996093v29.996094h-29.996093zm0 0" fill="#ebebfc"/><path d="m179.980469 270.96875h59.996093v29.996094h-59.996093zm0 0" fill="#3e5959"/><path d="m271.972656 270.96875h59.992188v29.996094h-59.992188zm0 0" fill="#293939"/><path d="m391.957031 300.964844h29.996094v30h-29.996094zm0 0" fill="#fdbf00"/><path d="m421.953125 270.96875h30v29.996094h-30zm0 0" fill="#ff641a"/><path d="m391.957031 240.972656h29.996094v29.996094h-29.996094zm0 0" fill="#61d7a8"/><path d="m194.980469 420.953125c-24.8125 0-44.996094-20.183594-44.996094-44.996094 0-24.808593 20.183594-44.992187 44.996094-44.992187s44.996093 20.183594 44.996093 44.992187c0 24.8125-20.183593 44.996094-44.996093 44.996094zm0 0" fill="#3e5959"/><path d="m316.964844 420.953125c-24.808594 0-44.992188-20.183594-44.992188-44.996094 0-24.808593 20.183594-44.992187 44.992188-44.992187 24.8125 0 44.996094 20.183594 44.996094 44.992187 0 24.8125-20.183594 44.996094-44.996094 44.996094zm0 0" fill="#293939"/><path d="m254.773438 0h257.171874v29.996094h-257.171874zm0 0" fill="#293939"/></svg>